<?xml version="1.0" encoding="UTF-8"?> <!-- Generator: Adobe Illustrator 26.0.2, SVG Export Plug-In . SVG Version: 6.00 Build 0) --> <svg xmlns="http://www.w3.org/2000/svg" xmlns:xlink="http://www.w3.org/1999/xlink" version="1.1" id="Layer_1" x="0px" y="0px" viewBox="0 0 162 162" style="enable-background:new 0 0 162 162;" xml:space="preserve"> <style type="text/css"> .st0{fill:#114735;} .st1{fill:#FFFFFF;} </style> <g id="Layer_2_00000111892394307191178890000017865984098878489001_"> </g> <g id="Layer_1_00000163768684059497414750000004501886461566337677_"> <g> <g> <path class="st0" d="M81,161.1c-0.6,0-1.1-0.2-1.5-0.6l-78-78c-0.4-0.4-0.6-0.9-0.6-1.5c0-0.6,0.2-1.1,0.6-1.5l78-78 c0.4-0.4,0.9-0.6,1.5-0.6c0.6,0,1.1,0.2,1.5,0.6l78,78c0.4,0.4,0.6,0.9,0.6,1.5c0,0.6-0.2,1.1-0.6,1.5l-77.9,78 C82.1,160.9,81.5,161.1,81,161.1z"></path> <path class="st1" d="M81,1.9c0.3,0,0.6,0.1,0.9,0.4l78,78c0.2,0.2,0.4,0.5,0.4,0.9c0,0.3-0.1,0.6-0.4,0.9l-78,78 c-0.2,0.2-0.5,0.4-0.9,0.4c-0.3,0-0.6-0.1-0.9-0.4l-78-78c-0.4-0.4-0.4-1.2,0-1.7l78-78C80.4,2,80.7,1.9,81,1.9 M81,0 c-0.8,0-1.6,0.3-2.1,0.9l-78,78c-0.6,0.6-0.9,1.3-0.9,2.1s0.3,1.6,0.9,2.1l78,78c0.6,0.6,1.3,0.9,2.1,0.9s1.6-0.3,2.1-0.9l78-78 c0.6-0.6,0.9-1.3,0.9-2.1s-0.3-1.6-0.9-2.1l-78-78C82.6,0.4,81.8,0,81,0L81,0z"></path> </g> <g> <path class="st1" d="M33.5,73.6l-1.7,8.9c-0.2,1.3-0.4,2.4-0.6,3.6c-0.2-1.3-0.4-2.4-0.6-3.6l-1.9-8.9h-3.7l-1.9,8.9 c-0.3,1.2-0.4,2.3-0.7,3.6c-0.1-1.2-0.3-2.3-0.6-3.6l-1.7-8.9h-3.5L20,88.5h4.7l1.7-8.3c0.2-0.8,0.3-1.5,0.4-2.2 c0.1,0.7,0.2,1.5,0.4,2.2l1.7,8.3h4.7L37,73.6H33.5z"></path> <path class="st1" d="M43.4,74.4c-4,0-6.5,2.6-6.5,6.7s2.5,6.7,6.5,6.7s6.5-2.6,6.5-6.7S47.5,74.4,43.4,74.4z M46.8,81 c0,2.6-1.2,4.1-3.3,4.1c-2.1,0-3.4-1.5-3.4-4.1s1.2-4.1,3.4-4.1C45.6,77,46.8,78.5,46.8,81z"></path> <path class="st1" d="M57.6,74.4c-4,0-6.5,2.6-6.5,6.7s2.5,6.7,6.5,6.7s6.5-2.6,6.5-6.7S61.6,74.4,57.6,74.4z M60.9,81 c0,2.6-1.2,4.1-3.3,4.1s-3.4-1.5-3.4-4.1s1.2-4.1,3.4-4.1C59.7,77,60.9,78.5,60.9,81z"></path> <path class="st1" d="M70.6,74.6h-4.8h-0.1v0.1v12.8v0.1h0.1h4.8c4.3,0,6.6-2.3,6.6-6.5C77.2,76.8,74.9,74.6,70.6,74.6z M74.1,81 c0,2.7-1.1,3.9-3.4,3.9h-1.9v-7.8h1.9C73,77.1,74.1,78.3,74.1,81z"></path> <path class="st1" d="M94.8,73.6l-1.7,8.9c-0.2,1.3-0.4,2.4-0.6,3.6c-0.2-1.3-0.4-2.4-0.6-3.6L90,73.6h-3.7l-1.9,8.9 c-0.3,1.2-0.4,2.3-0.7,3.6c-0.1-1.2-0.3-2.3-0.6-3.6l-1.7-8.9h-3.5l3.4,14.9H86l1.7-8.3c0.2-0.8,0.3-1.5,0.4-2.2 c0.1,0.7,0.2,1.5,0.4,2.2l1.7,8.3h4.8l3.4-14.9H94.8z"></path> <path class="st1" d="M104.7,74.4c-4,0-6.5,2.6-6.5,6.7s2.5,6.7,6.5,6.7c4,0,6.5-2.6,6.5-6.7S108.7,74.4,104.7,74.4z M108,81 c0,2.6-1.2,4.1-3.4,4.1c-2.1,0-3.4-1.5-3.4-4.1s1.2-4.1,3.4-4.1C106.8,77,108,78.5,108,81z"></path> <path class="st1" d="M120.2,82.4c1.7-0.6,2.6-1.9,2.6-3.7c0-2.6-1.6-4.1-4.6-4.1h-5.5h-0.1v0.1v12.8v0.1h0.1h2.9h0.1v-0.1v-4.7 h1.2l2.9,4.7l0,0h0h3.4h0.2l-0.1-0.1L120.2,82.4z M115.6,77h2.3c1.2,0,1.7,0.5,1.7,1.6c0,1.2-0.5,1.7-1.7,1.7h-2.3V77z"></path> <polygon class="st1" points="131.5,79.9 135.6,74.7 135.7,74.6 135.5,74.6 132,74.6 131.9,74.6 131.9,74.6 128,80.1 128,74.7 128,74.6 127.9,74.6 125,74.6 124.9,74.6 124.9,74.7 124.9,87.4 124.9,87.5 125,87.5 127.9,87.5 128,87.5 128,87.4 128,83.8 129.3,82.2 132.2,87.5 132.2,87.5 132.3,87.5 135.8,87.5 135.9,87.5 135.9,87.4 "></polygon> <path class="st1" d="M142.3,79.9c-2.3-0.6-2.9-0.9-2.9-1.7c0-0.8,0.6-1.2,1.7-1.2c1.4,0,2.2,0.8,2.4,2.3v0.1h0.1l2.6-0.3h0.1 v-0.1c-0.2-3-1.9-4.5-5.1-4.5c-2.9,0-4.7,1.6-4.7,3.9c0,2.5,1.7,3.4,4.4,4c1.9,0.5,2.6,0.8,2.6,1.6s-0.6,1.2-1.8,1.2 c-1.7,0-2.5-0.7-2.6-2.3v-0.1h-0.1l-2.7,0.3h-0.1v0.1c0.1,3,2.1,4.6,5.5,4.6c3,0,4.9-1.6,4.9-4C146.4,81.4,144.8,80.6,142.3,79.9 z"></path> </g> <path class="st1" d="M145.2,96.5l2.1-2.1H14.7l2.1,2.1h26.6l-0.1,0.1l51.6,51.6l1.5-1.5L83,133.4l36.9-36.9L145.2,96.5L145.2,96.5 z M81.5,131.9L46.1,96.5h70.8L81.5,131.9z"></path> <polygon class="st1" points="144.9,65.3 82,65.3 82,47.5 90.6,57.2 92.2,55.9 82,44.3 82,36.1 90.6,45.9 92.2,44.5 82,32.9 82,24.8 90.6,34.5 92.2,33.1 81,20.4 69.8,33.1 71.3,34.5 79.9,24.8 79.9,32.9 69.8,44.5 71.3,45.9 79.9,36.1 79.9,44.3 69.8,55.9 71.3,57.2 79.9,47.5 79.9,65.3 17.1,65.3 15,67.4 147,67.4 "></polygon> <g> <path class="st1" d="M38.4,100.6l-1.9,3.2l0,0l3.4-1.8l0.8,0.8l-1.8,3.4l0,0l3.2-1.9l0.9,0.9l-4.7,2.6l-0.8-0.8l1.7-3.2l0,0 l-3.2,1.7l-0.8-0.8l2.6-4.7L38.4,100.6z"></path> <path class="st1" d="M45,110.5l-0.4,0.4c-1.1,1.1-2.4,1.1-3.4,0c-1.1-1.1-1.2-2.3,0-3.4l0.4-0.4c1.1-1.1,2.4-1,3.4,0 C46,108.1,46.1,109.4,45,110.5z M42.4,107.9l-0.4,0.4c-0.7,0.7-0.7,1.3-0.1,1.9c0.6,0.6,1.2,0.6,1.9-0.1l0.4-0.4 c0.7-0.7,0.7-1.3,0.1-1.9C43.7,107.2,43.1,107.1,42.4,107.9z"></path> <path class="st1" d="M49,114.4l-0.4,0.4c-1.1,1.1-2.4,1.1-3.4,0c-1.1-1.1-1.2-2.3,0-3.4l0.4-0.4c1.1-1.1,2.4-1,3.4,0 C50,112.1,50.1,113.3,49,114.4z M46.3,111.8l-0.4,0.4c-0.7,0.7-0.7,1.3-0.1,1.9c0.6,0.6,1.2,0.6,1.9-0.1l0.4-0.4 c0.7-0.7,0.7-1.3,0.1-1.9C47.6,111.1,47,111.1,46.3,111.8z"></path> <path class="st1" d="M52.8,115.1c1.1,1.1,1,2.3,0.1,3.3l-0.4,0.4c-0.9,0.9-2.1,1-3.3-0.1l-1.5-1.5l3.6-3.6L52.8,115.1z M49.2,117.3l0.6,0.6c0.6,0.6,1.3,0.5,1.9,0l0.3-0.3c0.6-0.6,0.7-1.3,0-1.9l-0.6-0.6L49.2,117.3z"></path> <path class="st1" d="M58.1,120.3c0.8,0.8,0.9,1.7,0.2,2.4l-0.2,0.2c-0.7,0.7-1.6,0.6-2.4-0.2l-0.9-0.9l-1.2,1.2l-0.9-0.9l3.6-3.6 L58.1,120.3z M55.4,121.2l0.7,0.7c0.4,0.4,0.8,0.4,1.1,0.1l0.1-0.1c0.3-0.3,0.3-0.6-0.1-1.1l-0.7-0.7L55.4,121.2z"></path> <path class="st1" d="M57.3,126.8l-0.9-0.9l3.6-3.6l1.8,1.8c0.9,0.9,0.9,1.7,0.2,2.3l-0.2,0.2c-0.5,0.5-1.1,0.5-1.7,0.2l-0.5,2.3 l-0.9-0.9l0.5-2.1l-0.7-0.7L57.3,126.8z M59.2,124.8l0.8,0.8c0.4,0.4,0.8,0.4,1.1,0.2l0.1-0.1c0.3-0.3,0.3-0.6-0.2-1.1l-0.9-0.9 L59.2,124.8z"></path> <path class="st1" d="M65.7,131.2l-0.4,0.4c-1.1,1.1-2.4,1.1-3.4,0c-1.1-1.1-1.2-2.3,0-3.4l0.4-0.4c1.1-1.1,2.4-1,3.4,0 C66.7,128.8,66.8,130.1,65.7,131.2z M63,128.5l-0.4,0.4c-0.7,0.7-0.7,1.3-0.1,1.9c0.6,0.6,1.2,0.6,1.9-0.1l0.4-0.4 c0.7-0.7,0.7-1.3,0.1-1.9C64.4,127.9,63.8,127.8,63,128.5z"></path> <path class="st1" d="M69.4,131.7c1.1,1.1,1,2.3,0.1,3.3l-0.4,0.4c-0.9,0.9-2.1,1-3.3-0.1l-1.5-1.5l3.6-3.6L69.4,131.7z M65.8,133.9l0.6,0.6c0.6,0.6,1.3,0.5,1.9,0l0.3-0.3c0.6-0.6,0.7-1.3,0-1.9l-0.6-0.7L65.8,133.9z"></path> <path class="st1" d="M72.6,134.8l-2.2,2.2c-0.5,0.5-0.5,1.1,0,1.6s1.1,0.5,1.6,0l2.2-2.2l0.8,0.8l-2.2,2.2c-1,1-2.1,1-3.1,0 c-1.1-1.1-1-2.1,0-3.1l2.2-2.2L72.6,134.8z"></path> <path class="st1" d="M77.8,142.4l-0.1,0.1l-0.9-0.9l0.1-0.1c0.4-0.4,0.4-0.9-0.1-1.3c-0.6-0.6-1.3-0.4-1.8,0.1l-0.4,0.4 c-0.5,0.5-0.7,1.3-0.1,1.8c0.4,0.4,1,0.4,1.3,0.1l0.1-0.1l0.9,0.9l-0.1,0.1c-0.7,0.7-1.8,0.8-2.8-0.3c-1.1-1.1-1-2.4,0-3.4 l0.4-0.4c1-1,2.3-1,3.4,0C78.5,140.6,78.5,141.7,77.8,142.4z"></path> <path class="st1" d="M82.5,144.8l-0.7,0.7l-1.2-1.2l-2.9,2.9l-0.9-0.9l2.9-2.9l-1.2-1.2l0.7-0.7L82.5,144.8z"></path> <path class="st1" d="M85.1,149.5L85.1,149.5l-0.9-0.8l0.1-0.1c0.3-0.3,0.3-0.7-0.2-1.2c-0.4-0.4-0.8-0.5-1-0.3 c-0.3,0.3-0.1,0.5,0.4,1.3c0.9,1.3,0.9,1.9,0.3,2.5c-0.7,0.7-1.8,0.4-2.7-0.4c-1.1-1.1-1.1-2.1-0.4-2.8l0.1-0.1l0.9,0.9l0,0 c-0.4,0.4-0.3,0.9,0.2,1.3c0.4,0.4,0.9,0.5,1.1,0.3c0.3-0.3,0.2-0.5-0.4-1.4c-0.9-1.3-0.9-1.9-0.3-2.5c0.7-0.7,1.7-0.5,2.6,0.4 C85.7,147.8,85.7,148.8,85.1,149.5z"></path> </g> <g> <path class="st1" d="M101,127l0.1,0.1l-0.9,0.9l-0.1-0.1c-0.4-0.4-0.9-0.4-1.3,0.1c-0.6,0.6-0.4,1.3,0.1,1.8l0.4,0.4 c0.5,0.5,1.3,0.7,1.8,0.1c0.4-0.4,0.4-1,0.1-1.3l-0.1-0.1l0.9-0.9l0.1,0.1c0.7,0.7,0.8,1.8-0.3,2.8c-1.1,1.1-2.4,1-3.4,0 l-0.4-0.4c-1-1-1-2.3,0-3.4C99.2,126.2,100.3,126.2,101,127z"></path> <path class="st1" d="M105.6,123.3l0.4,0.4c1.1,1.1,1.1,2.4,0,3.4c-1.1,1.1-2.3,1.2-3.4,0l-0.4-0.4c-1.1-1.1-1-2.4,0-3.4 C103.2,122.2,104.4,122.1,105.6,123.3z M102.9,125.9l0.4,0.4c0.7,0.7,1.3,0.7,1.9,0.1c0.6-0.6,0.6-1.2-0.1-1.9l-0.4-0.4 c-0.7-0.7-1.3-0.7-1.9-0.1C102.3,124.6,102.2,125.2,102.9,125.9z"></path> <path class="st1" d="M105.5,120l2.2,2.2c0.5,0.5,1.1,0.5,1.6,0c0.5-0.5,0.5-1.1,0-1.6l-2.2-2.2l0.8-0.8l2.2,2.2c1,1,1,2.1,0,3.1 c-1.1,1.1-2.1,1-3.1,0l-2.2-2.2L105.5,120z"></path> <path class="st1" d="M109.8,115.8l4,0.7l0,0l-2.3-2.3l0.8-0.8l3.6,3.6l-0.8,0.8l-4-0.7l0,0l2.4,2.4l-0.8,0.8l-3.6-3.6 L109.8,115.8z"></path> <path class="st1" d="M117.3,110.6l0.1,0.1l-0.9,0.9l-0.1-0.1c-0.4-0.4-0.9-0.4-1.3,0.1c-0.6,0.6-0.4,1.3,0.1,1.8l0.4,0.4 c0.5,0.5,1.3,0.7,1.8,0.1c0.4-0.4,0.4-1,0.1-1.3l-0.1-0.1l0.9-0.9l0.1,0.1c0.7,0.7,0.8,1.8-0.3,2.8c-1.1,1.1-2.4,1-3.4,0 l-0.4-0.4c-1-1-1-2.3,0-3.4C115.5,109.9,116.6,109.9,117.3,110.6z"></path> <path class="st1" d="M118,107.6l3.6,3.6l-0.9,0.9l-3.6-3.6L118,107.6z"></path> <path class="st1" d="M119.7,105.8l2.9,2.9l1.7-1.7l0.7,0.7l-2.6,2.6l-3.6-3.6L119.7,105.8z"></path> </g> </g> <g> <path class="st0" d="M92.8,159.9h-0.7v2.1h-0.6v-2.1h-0.7v-0.5h2.1L92.8,159.9L92.8,159.9z"></path> <path class="st0" d="M95.8,162.1h-0.5v-2l-0.5,2h-0.6l-0.6-2v2H93v-2.6h0.8l0.6,2l0.5-2h0.9V162.1z"></path> </g> </g> </svg> 