<svg width="146" height="32" viewBox="0 0 146 32" fill="none" xmlns="http://www.w3.org/2000/svg">
<g id="logo" clip-path="url(#clip0_1344_324)">
<g id="Layer 2">
<g id="Layer 1">
<path id="Vector" d="M7.63765 7.66553H0V24.3369H7.63765C13.0225 24.3369 16.6405 20.9799 16.6405 15.9867C16.6405 10.9935 13.028 7.66553 7.63765 7.66553ZM7.39609 20.6178H4.28838V11.3662H7.39609C10.4088 11.3662 12.2816 13.1531 12.2816 16.029C12.2789 18.8679 10.4088 20.6178 7.39609 20.6178Z" fill="#002743"/>
<path id="Vector_2" d="M75.7768 7.66553H68.1392V24.3369H75.7768C81.1617 24.3369 84.7797 20.9799 84.7797 15.9867C84.7797 10.9935 81.1536 7.66553 75.7768 7.66553ZM75.538 20.6178H72.4302V11.3662H75.538C78.548 11.3662 80.4235 13.1531 80.4235 16.029C80.4207 18.8679 78.548 20.6178 75.538 20.6178Z" fill="#002743"/>
<path id="Vector_3" d="M111.479 11.3662H118.226V7.66553H111.237C105.852 7.66553 102.234 11.0093 102.234 15.9867C102.234 20.9641 105.852 24.3369 111.237 24.3369H118.226V14.3293H109.834V17.8053H113.938V20.6178H111.479C108.466 20.6178 106.593 18.86 106.593 16.0263C106.596 13.1583 108.466 11.3662 111.479 11.3662Z" fill="#002743"/>
<path id="Vector_4" d="M55.5835 7.66309L52.4758 19.6347L50.7659 13.97L48.695 7.66309H44.5586L42.4904 13.97L40.7805 19.6347L37.6701 7.66309H29.2019L24.7832 14.6626L20.3428 7.66309H15.2185L22.449 18.5615V24.3371H26.7618V18.5377L33.4115 8.64376L37.9985 24.3371H43.2911L46.6268 12.614L49.9652 24.3371H55.2578L60.1297 7.66309H55.5835Z" fill="#002743"/>
<path id="Vector_5" d="M65.5467 7.66309H61.2583V24.3345H65.5467V7.66309Z" fill="#002743"/>
<path id="Vector_6" d="M95.4789 7.66553H91.0413L84.0686 24.3369H88.623L89.8226 21.4293H97.216L98.4157 24.3369H102.973L95.9974 7.66553H95.4789ZM91.2829 17.8714L93.5193 12.4235L95.7585 17.8661L91.2829 17.8714Z" fill="#002743"/>
<path id="Vector_7" d="M136.848 17.3533L144.73 21.7835L136.848 26.2137V17.3533Z" fill="#C61827"/>
<path id="Vector_8" d="M137.652 16L145.531 11.5698V20.4302L137.652 16Z" fill="#C61827"/>
<path id="Vector_9" d="M127.362 21.7835L135.244 17.3533V26.2137L127.362 21.7835Z" fill="#C61827"/>
<path id="Vector_10" d="M126.562 9.7882V0L144.73 10.2164L136.075 15.1092L126.562 9.7882Z" fill="#C61827"/>
<path id="Vector_11" d="M126.562 23.1396L134.441 27.5698L126.562 32V23.1396Z" fill="#C61827"/>
</g>
</g>
</g>
<defs>
<clipPath id="clip0_1344_324">
<rect width="145.231" height="32" fill="white"/>
</clipPath>
</defs>
</svg>
