<svg width="170" height="62" viewBox="0 0 170 62" fill="none" xmlns="http://www.w3.org/2000/svg">
<path d="M36.51 19.3312H35.1925C34.8667 18.3991 34.2915 17.4103 33.4642 16.362C32.6397 15.3136 31.8549 14.7385 31.1126 14.6365C30.7754 14.5912 30.3278 14.5515 29.764 14.5175C29.203 14.4835 28.6845 14.4665 28.2142 14.4665H24.4884V23.8531H26.8684C27.5427 23.8531 28.1292 23.7766 28.625 23.6265C29.1208 23.4735 29.56 23.2015 29.9425 22.8077C30.2229 22.5272 30.4978 22.0568 30.7613 21.3995C31.0248 20.7422 31.1863 20.1755 31.2429 19.7024H32.5264V29.7804H31.2429C31.1976 29.2732 31.0248 28.6584 30.7188 27.9331C30.4156 27.2077 30.155 26.7261 29.9425 26.4909C29.6166 26.1311 29.2001 25.8648 28.693 25.6891C28.1858 25.5134 27.5795 25.4284 26.8712 25.4284H24.4912V33.3616C24.4912 33.7668 24.5677 34.1124 24.7179 34.3986C24.8709 34.6848 25.1599 34.9199 25.5877 35.0984C25.8342 35.2004 26.177 35.2939 26.6077 35.3761C27.0412 35.4611 27.4718 35.5262 27.8997 35.5687V36.8862H14.9856V35.5687C15.3114 35.5347 15.7449 35.4866 16.2861 35.4242C16.8272 35.3619 17.204 35.2854 17.4165 35.1976C17.8217 35.0389 18.1022 34.8208 18.2609 34.5403C18.4195 34.2598 18.496 33.8999 18.496 33.4608V16.5631C18.496 16.1806 18.4252 15.8463 18.2864 15.5601C18.1447 15.274 17.8557 15.0331 17.4165 14.8433C17.102 14.7073 16.6856 14.5855 16.1671 14.4722C15.6486 14.3588 15.2548 14.2852 14.9856 14.254V12.9365H36.5072V19.3312H36.51Z" fill="white"/>
<path d="M56.1587 32.8516C55.7648 33.4919 55.2888 34.0982 54.7335 34.6649C54.1754 35.2344 53.5435 35.7189 52.8352 36.124C52.0816 36.5519 51.3194 36.8749 50.5488 37.0958C49.7781 37.314 48.8913 37.4245 47.8912 37.4245C46.2252 37.4245 44.7887 37.1893 43.5789 36.7162C42.3691 36.243 41.3718 35.6084 40.5841 34.8094C39.7965 34.0104 39.2072 33.0669 38.819 31.9818C38.4308 30.8966 38.2354 29.718 38.2354 28.4459C38.2354 27.2984 38.445 26.1991 38.8672 25.1451C39.2893 24.0939 39.8872 23.1561 40.6635 22.3345C41.4285 21.5355 42.3946 20.8895 43.5591 20.3937C44.7235 19.8979 46.0269 19.6514 47.4662 19.6514C49.0415 19.6514 50.3363 19.844 51.3478 20.2265C52.3592 20.609 53.1979 21.1388 53.8637 21.8132C54.504 22.4535 54.9715 23.2128 55.2662 24.0826C55.558 24.9553 55.7053 25.8704 55.7053 26.8252V27.9217H44.2957C44.2957 30.228 44.7406 31.9846 45.6302 33.1888C46.5199 34.3929 47.9308 34.9936 49.8659 34.9936C50.9228 34.9936 51.8747 34.7046 52.7191 34.1237C53.5634 33.5458 54.283 32.8091 54.8809 31.9223L56.1587 32.8516ZM49.7101 26.4371C49.7101 25.7627 49.6761 25.0686 49.6081 24.3603C49.5401 23.652 49.424 23.0711 49.254 22.6206C49.0613 22.0908 48.8006 21.6913 48.4691 21.4222C48.1377 21.153 47.7183 21.017 47.2112 21.017C46.3442 21.017 45.6529 21.4562 45.1344 22.3345C44.6159 23.2128 44.3354 24.6011 44.2901 26.5051L49.7101 26.4371Z" fill="white"/>
<path d="M81.9528 19.5777V21.4221C80.9782 20.711 79.6607 20.3058 78.5245 20.3058C76.9634 20.3058 75.7253 21.0765 75.7253 22.4166C75.7253 23.6746 76.7793 24.2837 78.686 25.094C80.7968 26.0064 82.7036 26.879 82.7036 29.293C82.7036 31.8089 80.6552 33.4097 77.8361 33.4097C76.2324 33.4097 74.7535 32.8827 73.7788 32.1716V30.1628C74.813 31.0751 76.3344 31.7664 77.7737 31.7664C79.4369 31.7664 80.7968 30.8343 80.7968 29.3525C80.7968 28.0152 79.6408 27.406 77.5924 26.5135C75.6856 25.6805 73.8808 24.8107 73.8808 22.5186C73.8808 20.167 75.8074 18.6455 78.4849 18.6455C79.8024 18.6455 81.0603 19.0308 81.9528 19.5777Z" fill="white"/>
<path d="M90.3508 33.1091C89.9853 33.3131 89.4384 33.435 88.7698 33.435C86.863 33.435 85.6673 32.279 85.6673 30.2504V24.4053H84.1062V22.966H85.7098V20.4926L87.3928 19.9656V22.9688H90.0306V24.4082H87.3928V30.0464C87.3928 31.2647 88.002 31.8313 89.1381 31.8313C89.3818 31.8313 89.8889 31.7917 90.3564 31.5282V33.1091H90.3508Z" fill="white"/>
<path d="M101.508 27.4485C101.508 27.814 101.468 28.1993 101.406 28.4826H93.6173C93.7987 30.7747 95.4221 31.8287 97.3488 31.8287C98.6464 31.8287 99.9667 31.3811 100.837 30.6104V32.4152C99.5785 33.268 98.3404 33.4295 97.1051 33.4295C93.8808 33.4295 91.8097 31.0977 91.8097 28.0746C91.8097 25.0713 93.8383 22.7197 96.8813 22.7197C99.7627 22.7226 101.508 24.8107 101.508 27.4485ZM93.6797 27.0631H99.8052C99.6834 25.3603 98.4877 24.2639 96.8444 24.2639C95.1785 24.2639 93.9432 25.3802 93.6797 27.0631Z" fill="white"/>
<path d="M113.051 27.4485C113.051 27.814 113.011 28.1993 112.949 28.4826H105.16C105.341 30.7747 106.965 31.8287 108.891 31.8287C110.189 31.8287 111.509 31.3811 112.379 30.6104V32.4152C111.121 33.268 109.883 33.4295 108.648 33.4295C105.424 33.4295 103.352 31.0977 103.352 28.0746C103.352 25.0713 105.381 22.7197 108.424 22.7197C111.305 22.7226 113.051 24.8107 113.051 27.4485ZM105.22 27.0631H111.345C111.223 25.3603 110.028 24.2639 108.384 24.2639C106.721 24.2639 105.483 25.3802 105.22 27.0631Z" fill="white"/>
<path d="M115.626 18.8892H117.352V30.5538C117.352 31.3244 117.576 31.8514 118.346 31.8514C118.528 31.8514 118.751 31.8316 118.995 31.7296V33.2907C118.731 33.3927 118.425 33.4324 118.142 33.4324C116.805 33.4324 115.626 32.7835 115.626 30.8371V18.8892Z" fill="white"/>
<path d="M84.9362 53.3334C84.0239 54.0644 82.4628 54.5291 80.879 54.5291C76.7622 54.5291 73.5776 51.3445 73.5776 47.1257C73.5776 42.8446 76.7821 39.7422 80.7572 39.7422C82.239 39.7422 83.5168 40.068 84.6727 40.7168V42.584C83.5168 41.8728 82.2191 41.4677 80.9186 41.4677C77.7539 41.4677 75.3796 43.9213 75.3796 47.1285C75.3796 50.6588 77.9975 52.8093 81.0801 52.8093C82.4401 52.8093 83.7973 52.3219 84.9334 51.4493V53.3334H84.9362Z" fill="white"/>
<path d="M97.3091 49.174C97.3091 52.1773 95.0567 54.5289 92.0364 54.5289C89.0133 54.5289 86.7637 52.1773 86.7637 49.174C86.7637 46.1707 89.0161 43.8191 92.0364 43.8191C95.0567 43.8191 97.3091 46.1707 97.3091 49.174ZM88.526 49.174C88.526 51.2026 89.9653 52.9054 92.0364 52.9054C94.1047 52.9054 95.5468 51.2026 95.5468 49.174C95.5468 47.1454 94.1075 45.4426 92.0364 45.4426C89.9653 45.4426 88.526 47.1454 88.526 49.174Z" fill="white"/>
<path d="M101.689 44.0431V45.7685C102.279 44.5927 103.392 43.8022 105.137 43.8022C106.801 43.8022 108.078 44.6749 108.688 46.0745C109.58 44.5729 110.716 43.8022 112.461 43.8022C114.773 43.8022 116.377 45.4257 116.377 48.0408V54.2882H114.652V48.1202C114.652 46.355 113.555 45.3804 112.116 45.3804C109.985 45.3804 109.053 47.3495 109.053 49.0126V54.2854H107.328V48.1173C107.328 46.3522 106.231 45.3776 104.792 45.3776C102.661 45.3776 101.729 47.3467 101.729 49.0098V54.2825H100.004V44.0374H101.689V44.0431Z" fill="white"/>
<path d="M119.746 44.043H121.389V45.7458C122.038 44.6096 123.52 43.7993 124.979 43.7993C127.719 43.7993 129.846 46.0716 129.846 49.174C129.846 52.2368 127.736 54.5289 124.897 54.5289C123.517 54.5289 122.117 53.7979 121.449 52.7638V58.3425H119.746V44.043ZM124.693 52.948C126.537 52.948 128.101 51.3868 128.101 49.174C128.101 46.9414 126.54 45.3803 124.713 45.3803C122.967 45.3803 121.347 46.7998 121.347 49.174C121.347 51.5285 122.99 52.948 124.693 52.948Z" fill="white"/>
<path d="M135.992 43.7993C138.488 43.7993 140.109 45.2585 140.109 47.6327V54.2853H138.528V52.5201C137.797 53.8178 136.539 54.5289 135.06 54.5289C133.173 54.5289 131.753 53.2908 131.753 51.588C131.753 49.803 133.113 48.7689 135.547 48.4232L138.406 48.0181V47.6129C138.406 46.1736 137.411 45.3605 135.87 45.3605C134.533 45.3605 133.295 45.9894 132.504 46.5788V44.8335C133.357 44.2441 134.635 43.7993 135.992 43.7993ZM138.448 50.007V49.3582L135.831 49.7039C134.289 49.9079 133.436 50.5142 133.436 51.4888C133.436 52.4436 134.227 53.0726 135.323 53.0726C137.088 53.0698 138.448 51.5682 138.448 50.007Z" fill="white"/>
<path d="M148.651 43.7993C150.963 43.7993 152.567 45.4228 152.567 48.0379V54.2853H150.841V48.1172C150.841 46.3521 149.745 45.3775 148.305 45.3775C146.175 45.3775 145.243 47.3466 145.243 49.0097V54.2824H143.517V44.0373H145.2V45.7628C145.789 44.5898 146.906 43.7993 148.651 43.7993Z" fill="white"/>
<path d="M154.757 56.7616C155.284 57.0875 155.791 57.1073 156.074 57.1073C156.967 57.1073 157.474 56.62 157.941 55.4243L158.429 54.1465L154.19 44.0459H156.117L159.262 52.0981L162.364 44.0459H164.209L159.361 56.0335C158.732 57.5946 157.961 58.5891 156.216 58.5891C155.791 58.5891 155.264 58.5494 154.757 58.3058V56.7616Z" fill="white"/>
<path d="M28.078 47.5816H24.2729V47.2048C24.3608 47.1991 24.4883 47.1878 24.6583 47.1765C24.8283 47.1623 24.9444 47.1453 25.0096 47.1198C25.1286 47.0716 25.2108 47.0093 25.2533 46.93C25.2958 46.8506 25.3184 46.7515 25.3184 46.6268V41.7649C25.3184 41.6544 25.2986 41.5581 25.2561 41.4759C25.2136 41.3909 25.1314 41.3258 25.0096 41.2719C24.9331 41.2408 24.8169 41.2068 24.6668 41.1728C24.5166 41.1388 24.3834 41.1161 24.2758 41.1019V40.7251H28.0809V41.1019C27.9845 41.1104 27.8627 41.1246 27.7182 41.1416C27.5737 41.1586 27.4519 41.1841 27.3499 41.2181C27.2252 41.2606 27.1402 41.3258 27.0977 41.4136C27.0552 41.5014 27.0354 41.6034 27.0354 41.7167V46.5758C27.0354 46.692 27.0581 46.7911 27.1006 46.8733C27.1431 46.9555 27.2281 47.0235 27.3499 47.0745C27.4179 47.1028 27.5284 47.1311 27.687 47.1595C27.8429 47.1878 27.976 47.2048 28.0809 47.2105V47.5816H28.078Z" fill="white"/>
<path d="M33.4754 43.6716C33.4754 43.9153 33.3989 44.1306 33.2488 44.3176C33.0986 44.5018 32.8975 44.5953 32.6481 44.5953C32.413 44.5953 32.2146 44.5358 32.0503 44.4168C31.886 44.2978 31.8066 44.1221 31.8066 43.8926C31.8066 43.7793 31.8151 43.6915 31.8321 43.6291C31.8491 43.5668 31.8633 43.5073 31.8746 43.4535C31.7273 43.4591 31.5686 43.5101 31.4043 43.6065C31.24 43.7028 31.0955 43.8303 30.968 43.989V46.6437C30.968 46.7571 30.985 46.8506 31.0218 46.9242C31.0586 46.9979 31.1181 47.0574 31.2003 47.0971C31.2711 47.1339 31.3873 47.1622 31.546 47.1849C31.7046 47.2104 31.8208 47.2217 31.8916 47.2274V47.5816H28.656V47.2274C28.7354 47.2217 28.8175 47.2132 28.8997 47.2019C28.9819 47.1906 29.0527 47.1764 29.1094 47.1566C29.2114 47.1197 29.2822 47.0659 29.3219 46.9922C29.3615 46.9186 29.3785 46.8222 29.3785 46.7032V43.8898C29.3785 43.7736 29.3502 43.6688 29.2964 43.5781C29.2425 43.4875 29.1745 43.4138 29.098 43.3571C29.0414 43.3175 28.9677 43.2863 28.877 43.2608C28.7892 43.2353 28.69 43.2183 28.5852 43.207V42.8528L30.8915 42.7281L30.9623 42.8018V43.5016H30.9822C31.206 43.2438 31.4411 43.0426 31.6905 42.8953C31.9398 42.748 32.2005 42.6743 32.4725 42.6743C32.7728 42.6743 33.0136 42.7678 33.1949 42.952C33.3848 43.139 33.4754 43.377 33.4754 43.6716Z" fill="white"/>
<path d="M38.7453 43.3574C38.9833 43.5812 39.1646 43.8447 39.2921 44.1564C39.4168 44.4652 39.482 44.8024 39.482 45.1622C39.482 45.5192 39.4196 45.8563 39.295 46.1737C39.1703 46.491 38.989 46.763 38.751 46.9868C38.496 47.2276 38.1928 47.4146 37.8387 47.5421C37.4845 47.6725 37.0822 47.7348 36.6288 47.7348C36.235 47.7348 35.8752 47.6781 35.5437 47.5648C35.2122 47.4515 34.9204 47.2815 34.6654 47.0576C34.4217 46.8423 34.2262 46.576 34.0846 46.2587C33.9429 45.9413 33.8721 45.5872 33.8721 45.1934C33.8721 44.8052 33.9344 44.4624 34.0591 44.162C34.1837 43.8617 34.3679 43.5926 34.6172 43.3574C34.8552 43.1307 35.1499 42.9579 35.4984 42.8332C35.8469 42.7086 36.2378 42.6462 36.6713 42.6462C37.1218 42.6462 37.5185 42.7086 37.8642 42.8332C38.207 42.9551 38.5016 43.1307 38.7453 43.3574ZM37.5072 46.7063C37.578 46.525 37.629 46.3068 37.663 46.049C37.697 45.7912 37.714 45.4908 37.714 45.1509C37.714 44.9242 37.697 44.6664 37.6658 44.3774C37.6347 44.0884 37.5865 43.8589 37.5213 43.6917C37.4448 43.4877 37.3372 43.3291 37.2012 43.2129C37.0652 43.0967 36.8895 43.0401 36.6827 43.0401C36.4532 43.0401 36.2718 43.1024 36.133 43.2299C35.997 43.3546 35.8894 43.5189 35.8157 43.7172C35.7477 43.9014 35.7024 44.1167 35.6769 44.3632C35.6514 44.6097 35.6372 44.8675 35.6372 45.1339C35.6372 45.4852 35.6485 45.777 35.6712 46.0065C35.6939 46.236 35.7477 46.4683 35.8355 46.7007C35.9092 46.9018 36.0169 47.0577 36.1557 47.1738C36.2945 47.29 36.4702 47.3466 36.6827 47.3466C36.8753 47.3466 37.0425 47.2928 37.1813 47.1851C37.3173 47.0746 37.4278 46.916 37.5072 46.7063Z" fill="white"/>
<path d="M46.4859 47.5818H43.5818V47.2276C43.6441 47.2219 43.7178 47.2134 43.8056 47.2021C43.8934 47.1936 43.9586 47.1766 44.0039 47.1539C44.0719 47.1171 44.1201 47.0661 44.1484 46.9981C44.1768 46.9301 44.1909 46.8309 44.1909 46.6978V44.4368C44.1909 44.1082 44.1314 43.8617 44.0096 43.6945C43.8878 43.5273 43.7093 43.4452 43.4741 43.4452C43.3438 43.4452 43.2248 43.465 43.1143 43.5018C43.0038 43.5415 42.8933 43.5982 42.7885 43.6718C42.695 43.737 42.6185 43.8022 42.5618 43.8702C42.5051 43.9382 42.457 43.9977 42.4201 44.0487V46.6439C42.4201 46.7573 42.4371 46.8508 42.4683 46.9273C42.4995 47.0038 42.5533 47.0604 42.627 47.0973C42.678 47.1256 42.7431 47.1511 42.8196 47.1738C42.8961 47.1964 42.9726 47.2134 43.0463 47.2219V47.5761H40.1082V47.2219C40.1875 47.2163 40.2697 47.2078 40.3519 47.1964C40.434 47.1851 40.5048 47.1709 40.5615 47.1511C40.6635 47.1143 40.7343 47.0604 40.774 46.9868C40.8137 46.9131 40.8307 46.8168 40.8307 46.6978V43.8843C40.8307 43.7852 40.8052 43.686 40.7542 43.5897C40.7032 43.4933 40.6352 43.414 40.5502 43.3517C40.4935 43.312 40.4198 43.2808 40.3292 43.2553C40.2413 43.2298 40.1422 43.2128 40.0374 43.2015V42.8474L42.3436 42.7227L42.4173 42.7964V43.4962H42.4371C42.5278 43.4168 42.6383 43.3177 42.7658 43.2072C42.8933 43.0938 43.0151 43.0032 43.1228 42.9324C43.2418 42.8559 43.3976 42.7879 43.5931 42.734C43.7858 42.6802 43.9926 42.6519 44.2108 42.6519C44.7349 42.6519 45.1287 42.802 45.3922 43.0995C45.6557 43.397 45.7861 43.7937 45.7861 44.2867V46.6553C45.7861 46.7743 45.8031 46.8706 45.8399 46.9414C45.8767 47.0123 45.9419 47.0689 46.0382 47.1114C46.0892 47.1341 46.1544 47.1568 46.2281 47.1794C46.3046 47.2021 46.3896 47.2191 46.4859 47.2276V47.5818Z" fill="white"/>
<path d="M30.526 49.6328L30.5572 49.6838L30.3957 50.1825H29.1434C29.0981 50.3978 29.0329 50.7293 28.9819 50.9361C29.2341 50.8455 29.5145 50.7803 29.6505 50.7803C30.2994 50.7803 30.6422 51.1911 30.6422 51.6246C30.6422 51.9363 30.4977 52.2423 30.1407 52.4944C29.8602 52.6956 29.4862 52.8259 29.1859 52.8259C28.9847 52.8259 28.7694 52.7551 28.6532 52.6588C28.5484 52.5794 28.5286 52.5284 28.5286 52.4576C28.5286 52.3783 28.5937 52.2564 28.6844 52.1913C28.7439 52.1516 28.8091 52.1573 28.8799 52.2224C29.0017 52.3273 29.217 52.5341 29.5372 52.5341C29.8489 52.5341 29.9934 52.2564 29.9934 51.8966C29.9934 51.4433 29.7015 51.1486 29.2397 51.1486C29.0131 51.1486 28.8487 51.1996 28.7184 51.2336L28.6929 51.2025C28.7921 50.7463 28.9139 50.1003 28.9847 49.6356H30.526V49.6328Z" fill="white"/>
<path d="M33.0733 49.6328L33.1045 49.6838L32.943 50.1825H31.6907C31.6453 50.3978 31.5802 50.7293 31.5292 50.9361C31.7813 50.8455 32.0618 50.7803 32.1978 50.7803C32.8466 50.7803 33.1866 51.1911 33.1866 51.6246C33.1866 51.9363 33.0421 52.2423 32.6851 52.4944C32.4046 52.6956 32.0306 52.8259 31.7303 52.8259C31.5291 52.8259 31.3138 52.7551 31.1977 52.6588C31.0928 52.5794 31.073 52.5284 31.073 52.4576C31.073 52.3783 31.1382 52.2564 31.2288 52.1913C31.2883 52.1516 31.3535 52.1573 31.4243 52.2224C31.5462 52.3273 31.7615 52.5341 32.0816 52.5341C32.3933 52.5341 32.5378 52.2564 32.5378 51.8966C32.5378 51.4433 32.246 51.1486 31.7841 51.1486C31.5575 51.1486 31.3932 51.1996 31.2628 51.2336L31.2373 51.2025C31.3365 50.7463 31.4583 50.1003 31.5292 49.6356H33.0733V49.6328Z" fill="white"/>
<path d="M34.0364 52.826C33.8012 52.826 33.6284 52.6503 33.6284 52.4038C33.6284 52.163 33.7984 51.9873 34.0364 51.9873C34.2716 51.9873 34.4472 52.163 34.4472 52.4038C34.4501 52.6503 34.2772 52.826 34.0364 52.826Z" fill="white"/>
<path d="M35.9829 49.5735C36.5411 49.5735 36.9122 49.905 36.9122 50.3526C36.9122 50.4943 36.8613 50.6275 36.7451 50.7408C36.6658 50.8116 36.5581 50.8825 36.3739 51.0015C36.7309 51.1913 37.0482 51.4293 37.0482 51.8656C37.0482 52.5031 36.4108 52.8261 35.9178 52.8261C35.2435 52.8261 34.8213 52.4833 34.8213 51.9761C34.8213 51.7353 34.9375 51.6049 35.0366 51.5199C35.1358 51.4434 35.3483 51.3188 35.4928 51.2338C35.201 51.0666 34.946 50.823 34.946 50.449C34.946 49.9701 35.3681 49.5735 35.9829 49.5735ZM35.9829 52.6136C36.2634 52.6136 36.4363 52.4379 36.4306 52.1121C36.4249 51.7608 36.1954 51.5908 35.6911 51.3329C35.5409 51.4434 35.4248 51.6559 35.4248 51.9166C35.4248 52.3926 35.6996 52.6136 35.9829 52.6136ZM35.9121 49.786C35.6656 49.786 35.5296 49.973 35.5296 50.2223C35.5296 50.5538 35.7818 50.721 36.1841 50.8995C36.3003 50.7946 36.3711 50.6473 36.3711 50.3668C36.3683 49.9248 36.1133 49.786 35.9121 49.786Z" fill="white"/>
<path d="M39.2127 51.8913V52.203C39.2127 52.5033 39.2382 52.5487 39.6235 52.5798V52.7668H38.2012V52.5798C38.5526 52.5487 38.5696 52.4835 38.5696 52.1832V51.8913H37.2776V51.6845C37.8102 50.9592 38.4137 50.1517 38.8416 49.6021H39.2127V51.5967H39.6802V51.8885H39.2127V51.8913ZM38.5696 50.2934C38.3287 50.6305 37.9802 51.1065 37.6431 51.5995H38.5696V50.2934Z" fill="white"/>
<path d="M41.9415 49.6328L41.9726 49.6838L41.8111 50.1825H40.5588C40.5135 50.3978 40.4483 50.7293 40.3973 50.9361C40.6495 50.8455 40.93 50.7803 41.066 50.7803C41.7148 50.7803 42.0548 51.1911 42.0548 51.6246C42.0548 51.9363 41.9103 52.2423 41.5533 52.4944C41.2728 52.6956 40.8988 52.8259 40.5985 52.8259C40.3973 52.8259 40.182 52.7551 40.0658 52.6588C39.961 52.5794 39.9412 52.5284 39.9412 52.4576C39.9412 52.3783 40.0063 52.2564 40.097 52.1913C40.1565 52.1516 40.2217 52.1573 40.2925 52.2224C40.4143 52.3273 40.6296 52.5341 40.9498 52.5341C41.2615 52.5341 41.406 52.2564 41.406 51.8966C41.406 51.4433 41.1141 51.1486 40.6523 51.1486C40.4257 51.1486 40.2613 51.1996 40.131 51.2336L40.1055 51.2025C40.2047 50.7463 40.3265 50.1003 40.3973 49.6356H41.9415V49.6328Z" fill="white"/>
<path d="M10.2312 6.77119C10.149 7.05168 10.0498 7.40867 9.99882 7.62684H7.90503V7.48801C8.17986 7.21884 8.48019 6.91285 8.74369 6.61819C9.13184 6.18187 9.3075 5.83054 9.3075 5.42538C9.3075 5.05705 9.12617 4.81906 8.77485 4.81906C8.46319 4.81906 8.24219 5.03722 8.06936 5.28088L7.91353 5.15055L8.24503 4.65756C8.42069 4.45073 8.71251 4.3374 9.03834 4.3374C9.55683 4.3374 9.99316 4.68873 9.99316 5.26388C9.99316 5.66904 9.83733 5.9637 9.3075 6.45103C9.10634 6.63802 8.81452 6.90718 8.62752 7.06868C8.65302 7.06868 9.4775 7.06868 9.49734 7.06868C9.8175 7.06868 9.87983 7.04885 10.0725 6.72019L10.2312 6.77119Z" fill="white"/>
<path d="M11.5629 5.63501C11.6876 5.57268 11.8207 5.53585 11.9057 5.53585C12.4696 5.53585 12.8747 5.91834 12.8747 6.51049C12.8747 7.16498 12.3732 7.6863 11.6819 7.6863C11.0189 7.6863 10.5061 7.18765 10.5061 6.36033C10.5061 5.30352 11.3108 4.6802 11.9114 4.46203C12.0672 4.40537 12.4611 4.32604 12.6849 4.30054L12.7161 4.50737C12.5659 4.5442 12.3421 4.60653 12.1607 4.69436C11.8972 4.82469 11.4552 5.11369 11.2994 5.75684L11.5629 5.63501ZM11.5941 5.90984C11.4694 5.90984 11.3674 5.92967 11.2626 5.9665C11.2428 6.05433 11.2257 6.247 11.2257 6.38583C11.2257 7.07148 11.4553 7.46531 11.7896 7.46531C12.1097 7.46531 12.1891 7.06015 12.1891 6.73432C12.1891 6.247 11.9454 5.90984 11.5941 5.90984Z" fill="white"/>
<path d="M63.7915 2H5.7915V60H63.7915V2Z" stroke="white" stroke-width="2.2083" stroke-miterlimit="10"/>
</svg>
